<?xml version="1.0" encoding="UTF-8"?>
<svg width="28px" height="28px" viewBox="0 0 28 28" version="1.1" xmlns="http://www.w3.org/2000/svg" xmlns:xlink="http://www.w3.org/1999/xlink">
    <!-- Generator: Sketch 45 (43475) - http://www.bohemiancoding.com/sketch -->
    <title>icon-wordpress-logo</title>
    <desc>Created with Sketch.</desc>
    <defs></defs>
    <g id="Design" stroke="none" stroke-width="1" fill="none" fill-rule="evenodd">
        <g id="Design---Icons" transform="translate(-856.000000, -1371.000000)" fill="#344154">
            <path d="M858.968695,1380.07629 L864.467053,1395.76532 L864.425241,1395.76532 C862.146454,1394.66319 860.348511,1392.82633 859.031414,1390.2331 C858.278787,1388.46106 857.881567,1386.68902 857.881567,1384.9602 C857.881567,1383.38266 858.216068,1381.76189 858.864164,1380.0979 L858.968695,1380.0979 L858.968695,1380.07629 Z M871.073446,1389.80089 L873.394046,1396.30557 L873.352233,1396.30557 C872.056042,1396.73778 870.780757,1396.97549 869.484567,1396.97549 C868.33472,1396.97549 867.226686,1396.80261 866.202277,1396.45684 L869.672723,1385.95427 C869.756349,1385.95427 870.216287,1387.25089 871.073446,1389.80089 L871.073446,1389.80089 Z M875.338332,1392.26446 C875.275613,1392.26446 874.836581,1390.98946 874.042141,1388.41784 L871.073446,1379.29833 L871.115258,1379.29833 C872.265105,1379.29833 872.850482,1379.14705 872.850482,1378.84451 L872.850482,1378.69324 C872.787763,1378.45553 872.662325,1378.32587 872.495074,1378.28265 L869.275504,1378.43392 L866.01412,1378.28265 C865.84687,1378.3907 865.763244,1378.54197 865.763244,1378.73646 L865.721432,1378.73646 C865.721432,1379.10383 866.202277,1379.29833 867.163967,1379.29833 L867.414842,1379.34155 L869.191878,1384.528 L866.662215,1392.37251 L866.599496,1392.37251 L862.397329,1379.34155 L862.397329,1379.29833 L862.439142,1379.29833 C863.568082,1379.29833 864.132553,1379.16866 864.132553,1378.88773 L864.132553,1378.73646 C864.132553,1378.54197 864.028021,1378.36909 863.777145,1378.28265 L860.014011,1378.43392 L859.804947,1378.43392 L859.804947,1378.32587 C860.139448,1377.69917 860.912982,1376.81315 862.125547,1375.66781 C864.362522,1373.85255 866.829466,1372.94492 869.526379,1372.94492 C872.474168,1372.94492 875.087456,1374.00382 877.366243,1376.12162 L877.366243,1376.16484 L877.219899,1376.12162 C876.300022,1376.12162 875.651926,1376.7051 875.296519,1377.87205 L875.296519,1378.32587 C875.296519,1379.01739 875.756458,1380.07629 876.676335,1381.50257 C877.136274,1382.43181 877.366243,1383.42588 877.366243,1384.48478 C877.366243,1385.3708 876.948117,1387.03479 876.132771,1389.45513 L875.338332,1392.26446 L875.338332,1392.26446 Z M879.749562,1379.19027 C880.66944,1381.11358 881.129378,1383.03689 881.129378,1384.98181 C881.129378,1388.46106 879.812281,1391.46488 877.15718,1393.99328 C876.529991,1394.53353 875.923708,1394.98735 875.380144,1395.33311 L875.338332,1395.33311 L875.338332,1395.28989 L879.394155,1383.03689 C879.624124,1382.04282 879.749562,1381.17841 879.749562,1380.42206 L879.645031,1379.19027 L879.749562,1379.19027 L879.749562,1379.19027 Z M878.850591,1374.78179 C876.007334,1372.25339 873.080451,1371 870.069943,1371 L869.06644,1371 C866.432246,1371 863.798052,1371.95085 861.184764,1373.87416 C860.557574,1374.47925 860.202167,1374.8034 860.139448,1374.8034 C857.379816,1377.80722 856,1381.04875 856,1384.528 L856,1385.56529 C856,1388.50428 857.108034,1391.40005 859.324102,1394.23099 C862.230079,1397.40769 865.6169,1398.98524 869.484567,1398.98524 C872.432356,1398.98524 875.191988,1398.03439 877.763463,1396.11108 C881.296629,1393.04243 883.073665,1389.32547 883.073665,1384.98181 C883.073665,1381.1568 881.672942,1377.764 878.850591,1374.78179 L878.850591,1374.78179 Z M879.645031,1393.12887 C876.864492,1396.54328 873.519483,1398.25049 869.589098,1398.25049 L869.442754,1398.25049 C866.327715,1398.25049 863.505363,1397.12676 860.975701,1394.85769 C858.09063,1392.06997 856.648095,1388.78521 856.648095,1384.98181 C856.648095,1381.97799 857.567973,1379.23349 859.428634,1376.72671 C862.16736,1373.35551 865.512369,1371.66992 869.484567,1371.66992 C872.913201,1371.66992 875.965521,1372.96653 878.599715,1375.55976 C881.108472,1378.28265 882.36285,1381.39452 882.36285,1384.89537 L882.36285,1385.04664 C882.383757,1387.98564 881.463879,1390.68691 879.645031,1393.12887 L879.645031,1393.12887 Z M858.968695,1380.07629 L864.467053,1395.76532 L864.425241,1395.76532 C862.146454,1394.66319 860.348511,1392.82633 859.031414,1390.2331 C858.278787,1388.46106 857.881567,1386.68902 857.881567,1384.9602 C857.881567,1383.38266 858.216068,1381.76189 858.864164,1380.0979 L858.968695,1380.0979 L858.968695,1380.07629 Z M871.073446,1389.80089 L873.394046,1396.30557 L873.352233,1396.30557 C872.056042,1396.73778 870.780757,1396.97549 869.484567,1396.97549 C868.33472,1396.97549 867.226686,1396.80261 866.202277,1396.45684 L869.672723,1385.95427 C869.756349,1385.95427 870.216287,1387.25089 871.073446,1389.80089 L871.073446,1389.80089 Z M875.338332,1392.26446 C875.275613,1392.26446 874.836581,1390.98946 874.042141,1388.41784 L871.073446,1379.29833 L871.115258,1379.29833 C872.265105,1379.29833 872.850482,1379.14705 872.850482,1378.84451 L872.850482,1378.69324 C872.787763,1378.45553 872.662325,1378.32587 872.495074,1378.28265 L869.275504,1378.43392 L866.01412,1378.28265 C865.84687,1378.3907 865.763244,1378.54197 865.763244,1378.73646 L865.721432,1378.73646 C865.721432,1379.10383 866.202277,1379.29833 867.163967,1379.29833 L867.414842,1379.34155 L869.191878,1384.528 L866.662215,1392.37251 L866.599496,1392.37251 L862.397329,1379.34155 L862.397329,1379.29833 L862.439142,1379.29833 C863.568082,1379.29833 864.132553,1379.16866 864.132553,1378.88773 L864.132553,1378.73646 C864.132553,1378.54197 864.028021,1378.36909 863.777145,1378.28265 L860.014011,1378.43392 L859.804947,1378.43392 L859.804947,1378.32587 C860.139448,1377.69917 860.912982,1376.81315 862.125547,1375.66781 C864.362522,1373.85255 866.829466,1372.94492 869.526379,1372.94492 C872.474168,1372.94492 875.087456,1374.00382 877.366243,1376.12162 L877.366243,1376.16484 L877.219899,1376.12162 C876.300022,1376.12162 875.651926,1376.7051 875.296519,1377.87205 L875.296519,1378.32587 C875.296519,1379.01739 875.756458,1380.07629 876.676335,1381.50257 C877.136274,1382.43181 877.366243,1383.42588 877.366243,1384.48478 C877.366243,1385.3708 876.948117,1387.03479 876.132771,1389.45513 L875.338332,1392.26446 L875.338332,1392.26446 Z M881.129378,1384.98181 C881.129378,1388.46106 879.812281,1391.46488 877.15718,1393.99328 C876.529991,1394.53353 875.923708,1394.98735 875.380144,1395.33311 L875.338332,1395.33311 L875.338332,1395.28989 L879.394155,1383.03689 C879.624124,1382.04282 879.749562,1381.17841 879.749562,1380.42206 L879.645031,1379.19027 L879.749562,1379.19027 C880.66944,1381.11358 881.129378,1383.03689 881.129378,1384.98181 L881.129378,1384.98181 Z M864.467053,1395.74371 L864.425241,1395.74371 C862.146454,1394.64158 860.348511,1392.80471 859.031414,1390.21149 C858.278787,1388.43945 857.881567,1386.66741 857.881567,1384.93859 C857.881567,1383.36105 858.216068,1381.74028 858.864164,1380.07629 L858.968695,1380.07629 L864.467053,1395.74371 L864.467053,1395.74371 Z M875.275613,1378.32587 C875.275613,1379.01739 875.735552,1380.07629 876.655429,1381.50257 C877.115368,1382.43181 877.345337,1383.42588 877.345337,1384.48478 C877.345337,1385.3708 876.927211,1387.03479 876.111865,1389.45513 L875.317426,1392.26446 C875.254707,1392.26446 874.815674,1390.98946 874.021235,1388.41784 L871.073446,1379.29833 C872.265105,1379.29833 872.850482,1379.14705 872.850482,1378.84451 L872.850482,1378.69324 C872.787763,1378.45553 872.662325,1378.32587 872.495074,1378.28265 L869.275504,1378.43392 L866.01412,1378.28265 C865.84687,1378.3907 865.763244,1378.54197 865.763244,1378.73646 C865.721432,1379.10383 866.202277,1379.29833 867.163967,1379.29833 L867.414842,1379.34155 L869.191878,1384.528 L866.662215,1392.37251 L866.599496,1392.37251 L862.397329,1379.34155 L862.439142,1379.29833 C863.568082,1379.29833 864.132553,1379.16866 864.132553,1378.88773 L864.132553,1378.73646 C864.132553,1378.54197 864.028021,1378.36909 863.777145,1378.28265 L860.014011,1378.43392 L859.804947,1378.43392 L859.804947,1378.32587 C860.139448,1377.69917 860.912982,1376.81315 862.125547,1375.66781 C864.362522,1373.85255 866.829466,1372.94492 869.526379,1372.94492 C872.474168,1372.94492 875.087456,1374.00382 877.366243,1376.12162 L877.219899,1376.12162 C876.300022,1376.12162 875.651926,1376.7051 875.275613,1377.87205 L875.275613,1378.32587 Z M873.394046,1396.30557 L873.352233,1396.30557 C872.056042,1396.73778 870.780757,1396.97549 869.484567,1396.97549 C868.33472,1396.97549 867.226686,1396.80261 866.202277,1396.45684 L869.672723,1385.95427 C869.735442,1385.95427 870.195381,1387.22928 871.052539,1389.80089 L873.394046,1396.30557 L873.394046,1396.30557 Z M881.129378,1384.98181 C881.129378,1388.46106 879.812281,1391.46488 877.15718,1393.99328 C876.529991,1394.53353 875.923708,1394.98735 875.380144,1395.33311 L875.338332,1395.33311 L875.338332,1395.28989 L879.394155,1383.03689 C879.624124,1382.04282 879.749562,1381.17841 879.749562,1380.42206 L879.645031,1379.19027 L879.749562,1379.19027 C880.66944,1381.11358 881.129378,1383.03689 881.129378,1384.98181 L881.129378,1384.98181 Z" id="icon-wordpress-logo"></path>
        </g>
    </g>
</svg>